# xmcd CD database file
#
# Track frame offsets:
#	150
#	27016
#	48746
#	74433
#	102473
#	128526
#	157848
#	177481
#	202222
#	219475
#	248747
#	272495
#	299150
#	328916
#
# Disc length: 4767 seconds
#
# Revision: 5
# Processed by: cddbd v1.5.2PL0 Copyright (c) Steve Scherf et al.
# Submitted via: CDex 1.50
#
DISCID=dc129d0e
DTITLE=Wolfgang Hohlbein - Anubis CD04
DYEAR=2006
DGENRE=Hörbuch
TTITLE0=Anubis 43
TTITLE1=Anubis 44
TTITLE2=Anubis 45
TTITLE3=Anubis 46
TTITLE4=Anubis 47
TTITLE5=Anubis 48
TTITLE6=Anubis 49
TTITLE7=Anubis 50
TTITLE8=Anubis 51
TTITLE9=Anubis 52
TTITLE10=Anubis 53
TTITLE11=Anubis 54
TTITLE12=Anubis 55
TTITLE13=Anubis 56
EXTD=YEAR: 2006
EXTT0=
EXTT1=
EXTT2=
EXTT3=
EXTT4=
EXTT5=
EXTT6=
EXTT7=
EXTT8=
EXTT9=
EXTT10=
EXTT11=
EXTT12=
EXTT13=
PLAYORDER=
